<?xml version="1.0" encoding="utf-8"?>
<!-- Generator: Adobe Illustrator 24.0.0, SVG Export Plug-In . SVG Version: 6.00 Build 0)  -->
<svg version="1.1" id="Layer_1" xmlns="http://www.w3.org/2000/svg" xmlns:xlink="http://www.w3.org/1999/xlink" x="0px" y="0px"
	 width="235.6px" height="46.9px" viewBox="0 0 235.6 46.9" style="enable-background:new 0 0 235.6 46.9;" xml:space="preserve">
<style type="text/css">
	.st0{fill:#212549;}
	.st1{fill:#F7B912;}
	.st2{fill:url(#SVGID_1_);}
	.st3{fill:url(#SVGID_2_);}
	.st4{display:none;enable-background:new    ;}
	.st5{display:inline;fill:#F7B912;}
	.st6{enable-background:new    ;}
</style>
<g id="ARBEIDSLAG_copy">
	<g id="GEEKS_1_">
		<g id="Layer_1_2_">
			<g>
				<path class="st0" d="M77.4,13.4c-5.3,0-8.5,2.4-8.5,8.9v3.6c0,6.5,3.2,8.9,8.5,8.9s8.5-2.4,8.5-8.9v-3.6
					C85.9,15.8,82.8,13.4,77.4,13.4z M81.9,25.9c0,4.1-1.8,5.3-4.5,5.3s-4.5-1.4-4.5-5.3v-3.6c0-3.7,1.9-5.3,4.6-5.3
					s4.5,1.4,4.5,5.3L81.9,25.9L81.9,25.9z"/>
				<path class="st0" d="M124.6,13.7h-7.5c0,0-0.3,0-0.3,0.3c0,0.4,0,20,0,20.3s0.3,0.3,0.3,0.3h3.6c0,0,0.3,0,0.3-0.3
					c0-0.4,0-7.5,0-7.8s0.3-0.3,0.3-0.3h4c3.7,0,6.1-2.8,6.1-6.4C131.5,16.2,128.4,13.7,124.6,13.7z M124.4,22.8h-3.1
					c0,0-0.3,0-0.3-0.3s0-5.1,0-5.4s0.3-0.3,0.3-0.3h3.1c1.7,0,3.2,1.2,3.2,2.9C127.6,21.5,126.1,22.8,124.4,22.8z"/>
				<path class="st0" d="M109.1,13.7H89.5c0,0-0.3,0-0.3,0.3c0,0,0,20,0,20.3s0.3,0.3,0.3,0.3H93c0,0,0.3,0,0.3-0.3s0-16.6,0-16.6
					s4.8,0,5.2,0s0.3,0.3,0.3,0.3s0,16,0,16.3c0,0.3,0.3,0.3,0.3,0.3h3.6c0,0,0.3,0,0.3-0.3s0-16.6,0-16.6s4.8,0,5.2,0
					c0.3,0,0.3,0.3,0.3,0.3s0,16,0,16.3c0,0.3,0.3,0.3,0.3,0.3h3.6c0,0,0.3,0,0.3-0.3s0-17.8,0-17.8
					C112.6,15.5,112.3,13.7,109.1,13.7z"/>
				<path class="st0" d="M162.5,31c-0.3,0-8.8,0-8.8,0s-0.3,0-0.3-0.3s0-4.5,0-4.8s0.3-0.3,0.3-0.3s7.1,0,7.4,0
					c0.3,0,0.3-0.3,0.3-0.3v-3c0,0,0-0.3-0.3-0.3c-0.2,0-7.4,0-7.4,0s-0.3,0-0.3-0.3s0-3.8,0-4.1c0-0.3,0.3-0.3,0.3-0.3s8.5,0,8.8,0
					s0.3-0.3,0.3-0.3v-3c0,0,0-0.3-0.3-0.3s-13.1,0-13.1,0s-0.3,0-0.3,0.3c0,0,0,20,0,20.3s0.3,0.3,0.3,0.3s12.8,0,13.1,0
					s0.3-0.3,0.3-0.3v-3C162.8,31.3,162.8,31,162.5,31z"/>
				<path class="st0" d="M165.5,13.7c0,0-0.4,0-0.4,0.3s0,2.7,0,3s0.3,0.3,0.3,0.3s4.3,0,4.7,0s0.3,0.3,0.3,0.3s0,16.4,0,16.7
					s0.3,0.3,0.3,0.3h3.4c0,0,0.4,0,0.4-0.3c0-0.4,0-16.7,0-16.7s0-0.3,0.3-0.3c0.4,0,4.4,0,4.7,0c0.4,0,0.3-0.3,0.3-0.3v-3
					c0,0,0-0.3-0.3-0.3S165.5,13.7,165.5,13.7z"/>
				<path class="st0" d="M196.2,13.7c-0.3,0-13.9,0-13.9,0s-0.4,0-0.4,0.3s0,2.7,0,3s0.3,0.3,0.3,0.3s4.3,0,4.7,0s0.3,0.3,0.3,0.3
					s0,16.4,0,16.7s0.3,0.3,0.3,0.3h3.4c0,0,0.4,0,0.4-0.3c0-0.4,0-16.7,0-16.7s0-0.3,0.3-0.3c0.4,0,4.4,0,4.7,0s0.3-0.3,0.3-0.3v-3
					C196.4,14,196.4,13.7,196.2,13.7z"/>
				<path class="st0" d="M68.1,13.7c-0.6,0-4,0-4.4,0S63.1,14,63.1,14l-7.8,8.6c0,0,0-8.4,0-8.6S55,13.7,55,13.7h-3.6
					c0,0-0.3,0-0.3,0.3s0,20,0,20.3s0.3,0.3,0.3,0.3H55c0,0,0.3,0,0.3-0.3s0-9.5,0-9.5l7.9,9.5c0,0,0.2,0.3,0.6,0.3s3.7,0,4.2,0
					s0.3-0.3,0.3-0.3l-9.1-10.8l9.1-9.6C68.4,14,68.7,13.7,68.1,13.7z"/>
				<path class="st0" d="M138.5,31c0,0-0.3,0-0.3-0.3s0-16.4,0-16.7s-0.3-0.3-0.3-0.3h-3.6c0,0-0.3,0-0.3,0.3c0,0.4,0,20,0,20.3
					s0.3,0.3,0.3,0.3s11.4,0,11.8,0c0.3,0,0.3-0.3,0.3-0.3v-3c0,0,0-0.3-0.3-0.3C145.8,31,138.5,31,138.5,31z"/>
			</g>
			<g>
				<path class="st0" d="M202.5,12.3c1.8,0,3.2,1.4,3.2,3.2s-1.4,3.2-3.2,3.2c-1.7,0-3.2-1.4-3.2-3.2S200.7,12.3,202.5,12.3z
					 M202.5,18c1.4,0,2.5-1.1,2.5-2.5s-1.1-2.5-2.5-2.5s-2.5,1.1-2.5,2.5S201,18,202.5,18z M204.1,16.7v0.5l-0.1,0.1h-0.3l-0.2-0.1
					l-1-1.2l-0.2-0.1h-0.6l-0.1,0.1v1.2l-0.1,0.1H201l-0.1-0.1v-3.4l0.1-0.1h1.8c0.7,0,1.2,0.4,1.2,1.1c0,0.5-0.2,0.8-0.7,1v0.1
					L204.1,16.7z M203,14.4h-1.1l-0.1,0.1v0.7l0.1,0.1h1.1c0.3,0,0.5-0.2,0.5-0.5C203.4,14.5,203.2,14.4,203,14.4z"/>
			</g>
			<g id="Layer_2_2_">
				<polygon class="st1" points="30.5,17.5 40.7,11.6 20.5,-0.1 0.1,11.6 0.1,35 20.5,46.8 40.7,35 				"/>
				<polygon class="st1" points="0.1,35 10.3,29.2 20.5,46.8 				"/>
				<polygon class="st1" points="0.1,11.6 20.5,-0.1 40.7,11.6 20.5,23.3 				"/>
				
					<linearGradient id="SVGID_1_" gradientUnits="userSpaceOnUse" x1="14666.5547" y1="11523.5527" x2="14713.5752" y2="11427.1465" gradientTransform="matrix(0.1963 0 0 0.1963 -2877.6479 -2226.3691)">
					<stop  offset="0" style="stop-color:#B77B06"/>
					<stop  offset="0.5" style="stop-color:#D7920A"/>
					<stop  offset="1" style="stop-color:#ECA70D"/>
				</linearGradient>
				<polygon class="st2" points="0.1,11.6 20.5,23.3 0.1,35 				"/>
				
					<linearGradient id="SVGID_2_" gradientUnits="userSpaceOnUse" x1="14758.1631" y1="11459.2207" x2="14820.4766" y2="11551.6035" gradientTransform="matrix(0.1963 0 0 0.1963 -2877.6479 -2226.3691)">
					<stop  offset="0" style="stop-color:#B77B06"/>
					<stop  offset="0.5" style="stop-color:#E69F0C"/>
					<stop  offset="1" style="stop-color:#F7B912"/>
				</linearGradient>
				<polygon class="st3" points="30.5,17.5 40.7,35 20.5,46.8 10.3,29.2 				"/>
			</g>
		</g>
	</g>
</g>
<g id="LAND">
	<g class="st4">
		<path class="st5" d="M203.8,34.6h-3.1l-0.3-0.3v-3.1l0.3-0.3h3.1l0.3,0.3v3.1L203.8,34.6z"/>
		<path class="st5" d="M221.5,34.6H219l-0.3-0.3v-9c0-1.5-0.3-3.7-3.1-3.7s-4,1.5-4,5.3v7.4l-0.3,0.3h-2.5l-0.3-0.3V19.4l0.3-0.3
			h2.2l0.3,0.3l0.3,1.2h0.3c0,0,1.2-1.9,4-1.9c4.3,0,5.9,2.8,5.9,6.5v9L221.5,34.6z"/>
		<path class="st5" d="M231.7,18.8c4.7,0,7.4,3.1,7.4,8.1s-2.8,8.1-7.4,8.1c-4.7,0-7.4-3.1-7.4-8.1S227.1,18.8,231.7,18.8z
			 M231.7,32.1c2.8,0,4.3-1.9,4.3-5.3s-1.5-5.3-4.3-5.3s-4.3,1.9-4.3,5.3S228.9,32.1,231.7,32.1z"/>
	</g>
	<g class="st4">
		<path class="st5" d="M203.8,34.6h-3.1l-0.3-0.3v-3.1l0.3-0.3h3.1l0.3,0.3v3.1L203.8,34.6z"/>
		<path class="st5" d="M221.2,34.6H219l-0.3-0.3l-0.3-1.2h-0.3c0,0-1.2,1.9-4,1.9c-4.3,0-6.8-3.4-6.8-8.1s2.5-8.1,6.8-8.1
			c2.8,0,4,1.9,4,1.9h0.3v-7.4l0.3-0.3h2.5l0.3,0.3v21.1L221.2,34.6z M214.4,21.5c-2.5,0-4,1.9-4,5.3s1.6,5.3,4,5.3s4-1.6,4-5.3
			S216.8,21.5,214.4,21.5z"/>
		<path class="st5" d="M237.6,34.6h-1.2l-0.6-0.3l-4.7-5.9h-0.3l-2.2,2.2l-0.3,0.6v3.1l-0.3,0.3h-2.5l-0.3-0.3V13.2l0.3-0.3h2.5
			l0.3,0.3v13.3h0.3l7.1-7.1l0.6-0.3h0.9l0.3,0.3v2.2l-4.3,4.3v0.3l4.7,5.9v2.2L237.6,34.6z"/>
	</g>
	<g class="st6">
		<path class="st1" d="M203.8,34.6h-3.1l-0.3-0.3v-3.1l0.3-0.3h3.1l0.3,0.3v3.1L203.8,34.6z"/>
		<path class="st1" d="M213.4,34.9c-4,0-6.2-1.9-6.2-5.3l0.3-0.3h2.5l0.3,0.3c0,1.6,0.9,2.5,3.1,2.5c2.2,0,3.1-0.6,3.1-1.9
			c0-1.5-0.9-1.9-4-2.5s-5-1.9-5-4.7c0-2.2,1.5-4.3,5.9-4.3c3.4,0,5.9,1.5,5.9,4.7l-0.3,0.3h-2.5l-0.3-0.3c0-0.9-0.6-1.9-2.8-1.9
			c-1.5,0-2.8,0.3-2.8,1.5c0,1.6,1.2,1.9,4.3,2.5s4.7,1.9,4.7,4.7C219.6,32.7,217.8,34.9,213.4,34.9z"/>
		<path class="st1" d="M221.5,26.8c0-4.3,2.2-8.1,7.1-8.1s7.1,3.7,7.1,8.1v0.9l-0.3,0.3h-10.2l-0.3,0.3c0,0.6,0.3,3.7,4,3.7
			c1.2,0,2.5-0.3,3.1-1.9l0.3-0.3h2.5l0.3,0.3c-0.3,2.5-2.5,4.7-6.2,4.7C224,34.9,221.5,31.5,221.5,26.8z M232.3,25.3
			c0-0.9-0.3-3.7-3.7-3.7s-3.7,2.8-3.7,3.7l0.3,0.3h6.8L232.3,25.3z"/>
	</g>
	<g class="st4">
		<path class="st5" d="M203.8,34.6h-3.1l-0.3-0.3v-3.1l0.3-0.3h3.1l0.3,0.3v3.1L203.8,34.6z"/>
		<path class="st5" d="M221.5,34.6H219l-0.3-0.3V22.2l-0.3-0.3h-5.9l-0.3,0.3v12.1l-0.3,0.3h-2.5l-0.3-0.3V22.2l-0.3-0.3h-2.2
			l-0.3-0.3v-2.2l0.3-0.3h2.2l0.3-0.3v-1.2c0-2.8,2.2-4,4.3-4h2.5l0.3,0.3V16l-0.3,0.3h-2.5c-0.6,0-1.2,0.3-1.2,1.2v1.2l0.3,0.3h9
			l0.3,0.3v14.9L221.5,34.6z M221.5,16.6H219l-0.3-0.3v-2.5l0.3-0.3h2.5l0.3,0.3v2.5L221.5,16.6z"/>
	</g>
</g>
</svg>
